HIERARCHY
ROOT root
{
	OFFSET 0.000000 0.000000 0.000000
	CHANNELS 6 Xposition Yposition Zposition Zrotation Yrotation Xrotation
	JOINT lhip
	{
		OFFSET 0.058581 -0.082280 -0.017664
		CHANNELS 3 Zrotation Yrotation Xrotation
		JOINT lknee
		{
			OFFSET 0.043451 -0.386469 0.008037
			CHANNELS 3 Zrotation Yrotation Xrotation
			JOINT lankle
			{
				OFFSET -0.014790 -0.426874 -0.037428
				CHANNELS 3 Zrotation Yrotation Xrotation
				JOINT ltoe
				{
					OFFSET 0.041054 -0.060286 0.122042
					CHANNELS 3 Zrotation Yrotation Xrotation
					End Site
					{
						OFFSET 0.000000 0.000000 0.000000
					}
				}
			}
		}
	}
	JOINT rhip
	{
		OFFSET -0.060310 -0.090513 -0.013543
		CHANNELS 3 Zrotation Yrotation Xrotation
		JOINT rknee
		{
			OFFSET -0.043257 -0.383688 -0.004843
			CHANNELS 3 Zrotation Yrotation Xrotation
			JOINT rankle
			{
				OFFSET 0.019056 -0.420046 -0.034562
				CHANNELS 3 Zrotation Yrotation Xrotation
				JOINT rtoe
				{
					OFFSET -0.034840 -0.062106 0.130323
					CHANNELS 3 Zrotation Yrotation Xrotation
					End Site
					{
						OFFSET 0.000000 0.000000 0.000000
					}
				}
			}
		}
	}
	JOINT lowerback
	{
		OFFSET 0.004439 0.124404 -0.038385
		CHANNELS 3 Zrotation Yrotation Xrotation
		JOINT upperback
		{
			OFFSET 0.004488 0.137956 0.026820
			CHANNELS 3 Zrotation Yrotation Xrotation
			JOINT chest
			{
				OFFSET -0.002265 0.056032 0.002855
				CHANNELS 3 Zrotation Yrotation Xrotation
				JOINT lowerneck
				{
					OFFSET -0.013390 0.211636 -0.033468
					CHANNELS 3 Zrotation Yrotation Xrotation
					JOINT upperneck
					{
						OFFSET 0.010113 0.088937 0.050410
						CHANNELS 3 Zrotation Yrotation Xrotation
						End Site
						{
							OFFSET 0.000000 0.000000 0.000000
						}
					}
				}
				JOINT lclavicle
				{
					OFFSET 0.071702 0.114000 -0.018898
					CHANNELS 3 Zrotation Yrotation Xrotation
					JOINT lshoulder
					{
						OFFSET 0.122921 0.045205 -0.019046
						CHANNELS 3 Zrotation Yrotation Xrotation
						JOINT lelbow
						{
							OFFSET 0.255332 -0.015649 -0.022946
							CHANNELS 3 Zrotation Yrotation Xrotation
							JOINT lwrist
							{
								OFFSET 0.265709 0.012698 -0.007375
								CHANNELS 3 Zrotation Yrotation Xrotation
								End Site
								{
									OFFSET 0.000000 0.000000 0.000000
								}
							}
						}
					}
				}
				JOINT rclavicle
				{
					OFFSET -0.082954 0.112472 -0.023707
					CHANNELS 3 Zrotation Yrotation Xrotation
					JOINT rshoulder
					{
						OFFSET -0.113228 0.046853 -0.008472
						CHANNELS 3 Zrotation Yrotation Xrotation
						JOINT relbow
						{
							OFFSET -0.260127 -0.014369 -0.031269
							CHANNELS 3 Zrotation Yrotation Xrotation
							JOINT rwrist
							{
								OFFSET -0.269108 0.006794 -0.006027
								CHANNELS 3 Zrotation Yrotation Xrotation
								End Site
								{
									OFFSET 0.000000 0.000000 0.000000
								}
							}
						}
					}
				}
			}
		}
	}
}
MOTION
Frames: 5
Frame Time: 0.033333
0.200578 0.744438 0.886104 -27.883375 10.212904 85.633056 -2.396290 -1.171210 -25.126624 -12.644439 3.697190 54.241253 12.996669 22.622951 -35.947659 0.000000 -0.000000 0.000000 -0.301488 6.468413 -22.408503 8.279272 8.358042 48.019473 -1.868791 -11.749133 -27.810686 0.000000 -0.000000 0.000000 2.113767 -5.064278 22.755174 6.993603 -8.771863 -6.618299 5.897015 -2.494177 -0.298414 -7.133779 5.563152 -20.479770 5.093938 15.579314 -18.509499 -23.987583 -21.738717 9.299483 -53.025838 -29.057420 19.685360 -22.362943 -41.742577 23.377702 -13.770875 -14.800435 -0.604168 15.414840 1.764156 4.360197 54.029215 -15.372006 -5.744712 -11.666222 14.088328 1.269652 6.758248 -0.648708 6.302734 
0.176657 0.754980 0.849624 -25.985538 9.900122 85.272608 0.653719 -6.220935 -33.589949 -12.116662 9.220708 70.670390 11.475708 22.344949 -34.763185 0.000000 -0.000000 0.000000 1.214214 7.558474 -29.532904 6.701383 3.777097 62.684348 -2.666003 -14.336146 -29.776188 0.000000 -0.000000 0.000000 0.534449 -4.436289 27.227790 6.993333 -8.387965 -6.522034 6.136206 -2.387908 -1.695240 -7.831856 8.764899 -24.198286 4.874924 17.534958 -22.627659 -26.686501 -17.618573 10.764791 -51.739496 -25.304339 14.238221 -13.200301 -37.024568 13.136321 -15.094393 -12.633019 3.413569 19.545383 2.255192 7.521901 60.418458 -12.754900 -5.470690 -12.362453 12.346060 2.404398 6.949893 -1.277789 8.888895 
0.159002 0.761964 0.828152 -25.206891 9.972208 84.927980 2.330035 -6.527695 -36.929725 -12.666973 9.845473 77.618130 11.562793 22.615415 -34.942181 0.000000 -0.000000 0.000000 1.723849 9.090096 -31.540917 6.036146 0.201844 67.571119 -4.356488 -16.041712 -32.717367 0.000000 -0.000000 0.000000 -0.386974 -4.311619 30.657375 6.581470 -6.778386 -6.901014 6.378928 -2.217290 -1.563925 -7.118644 10.449490 -26.688257 3.981764 16.397043 -23.944948 -25.286697 -16.570063 9.406703 -54.443602 -22.446510 12.731730 -3.346133 -29.998751 4.778144 -15.227205 -10.618980 5.452113 20.898092 5.021202 7.774042 62.078998 -10.174499 -1.724564 -11.488404 14.564824 4.315629 7.843367 -0.393054 6.114068 
0.143198 0.766193 0.817429 -24.678726 9.852040 86.062462 3.155791 -4.629726 -38.874871 -12.156338 9.634901 80.050500 11.825945 22.759526 -37.250432 0.000000 -0.000000 0.000000 2.931825 9.345386 -34.005321 5.340292 -0.281289 70.676061 -4.044261 -16.583309 -34.642844 0.000000 -0.000000 0.000000 -0.931458 -3.724442 31.213451 6.115625 -5.332932 -7.939590 6.727701 -1.999863 -0.822088 -7.552786 10.509073 -28.209305 3.348623 14.866623 -22.949812 -24.605579 -17.580841 8.234770 -55.280522 -19.501830 11.384355 2.189320 -22.017019 0.879261 -15.035905 -7.597666 7.679725 22.708528 8.380446 7.871796 58.543865 -6.643968 -1.126075 -12.894742 17.141987 1.930776 6.760865 0.416183 4.844392 
0.136647 0.767827 0.819804 -23.093332 8.649259 87.393430 2.457897 -5.835366 -39.577688 -11.742010 9.773394 79.055371 12.366906 23.632041 -37.769182 0.000000 -0.000000 0.000000 1.721488 8.581495 -35.216789 5.628573 -0.427843 71.060508 -3.763779 -16.880345 -34.578720 0.000000 -0.000000 0.000000 -0.793454 -2.844745 30.857224 5.487513 -5.161330 -6.948950 6.385302 -1.695859 -1.840674 -7.856627 8.383068 -29.891821 2.602426 14.744115 -21.393991 -24.813004 -17.950571 7.777799 -53.941442 -17.381475 9.474636 5.851414 -17.860928 -0.212081 -16.373343 -3.455379 10.463071 24.084972 10.763811 8.275994 51.278619 -1.480129 -1.928336 -14.622335 19.310416 -0.361086 7.668653 -0.022691 8.460904 
